{"title":"Benfica vs Chelsea FC - 15 May 2013 - Europa League 720p","uid":8477810,"size":1843726982,"categoryP":"video","categoryS":"hd___tv_shows","magnet":"?xt=urn:btih:9bcb7f7a76ac4f816120496a7e4b10f8d1b4f32f&amp;dn=Benfica+vs+Chelsea+FC+-+15+May+2013+-+Europa+League+720p&amp;tr=udp%3A%2F%2Ftracker.openbittorrent.com%3A80&amp;tr=udp%3A%2F%2Fopen.demonii.com%3A1337&amp;tr=udp%3A%2F%2Ftracker.coppersurfer.tk%3A6969&amp;tr=udp%3A%2F%2Fexodus.desync.com%3A6969","seeders":0,"leechers":0,"uploader":"IAMH67","files":7,"time":1368659816,"description":"Benfica vs Chelsea, Europa League final aired on 15th of May 2013. English Commentary from ITV.\n\nQuality : 720p with MPEG-AVC Format. \n\nDetails : Full match and trophy presentation plus celebrations for the winning team\n\nCredit : Aired by Arena Vision 3 and Rojadirecta, capped by IAMH67 via Android and uploaded in under 1 hour of the match airing.\n\n\n\nVideo\n\nID                             : 69 (0x45)\nMenu ID                        : 1 (0x1)\nFormat                         : AVC [MPEG]\nFormat/Info                    : Advanced Video Codec\nFormat profile                 : &lt;a class=&quot;__cf_email__&quot; href=&quot;/cdn-cgi/l/email-protection&quot; data-cfemail=&quot;8bc3e2ece3cbc7bea5ba&quot;&gt;[email&amp;#160;protected]&lt;/a&gt;&lt;script data-cfhash='f9e31' type=&quot;text/javascript&quot;&gt;\n/* &lt;![CDATA[ */!function(){try{var t=&quot;currentScript&quot;in document?document.currentScript:function(){for(var t=document.getElementsByTagName(&quot;script&quot;),e=t.length;e--;)if(t[e].getAttribute(&quot;data-cfhash&quot;))return t[e]}();if(t&amp;&amp;t.previousSibling){var e,r,n,i,c=t.previousSibling,a=c.getAttribute(&quot;data-cfemail&quot;);if(a){for(e=&quot;&quot;,r=parseInt(a.substr(0,2),16),n=2;a.length-n;n+=2)i=parseInt(a.substr(n,2),16)^r,e+=String.fromCharCode(i);e=document.createTextNode(e),c.parentNode.replaceChild(e,c)}t.parentNode.removeChild(t);}}catch(u){}}()/* ]]&gt; */&lt;/script&gt;\nFormat settings, CABAC         : Yes\nFormat settings, ReFrames      : 7 frames\nCodec ID                       : 27\nDuration                       : 48mn 24s\nBit rate                       : 1 904 Kbps\nWidth                          : 1 280 pixels\nHeight                         : 720 pixels\nDisplay aspect ratio           : 16:9\nFrame rate                     : 25.000 fps\nColor space                    : YUV\nChroma subsampling             : 4:2:0\nBit depth                      : 8 bits\nScan type                      : Progressive\nBits/(Pixel*Frame)             : 0.083\nStream size                    : 656 MiB (90%)\n\nAudio\n\nID                             : 68 (0x44)\nMenu ID                        : 1 (0x1)\nFormat                         : MPEG Audio\nFormat version                 : Version 1\nFormat profile                 : Layer 3\nMode                           : Joint stereo\nMode extension                 : MS Stereo\nCodec ID                       : 3\nDuration                       : 48mn 24s\nBit rate mode                  : Constant\nBit rate                       : 96.0 Kbps\nChannel(s)                     : 2 channels\nSampling rate                  : 44.1 KHz\nCompression mode               : Lossy\nDelay relative to video        : -72ms\nStream size                    : 33.2 MiB (5%)\n\n\nScreens : \n &lt;a href=&quot;\nhttp://i.imgur.com/Kq49oW8.jpg&quot; rel=&quot;nofollow&quot; target=&quot;_NEW&quot;&gt;\nhttp://i.imgur.com/Kq49oW8.jpg&lt;/a&gt;\n &lt;a href=&quot;\nhttp://i.imgur.com/Vn0UKpB.jpg&quot; rel=&quot;nofollow&quot; target=&quot;_NEW&quot;&gt;\nhttp://i.imgur.com/Vn0UKpB.jpg&lt;/a&gt;\n &lt;a href=&quot;\nhttp://i.imgur.com/Ulxeqm4.jpg&quot; rel=&quot;nofollow&quot; target=&quot;_NEW&quot;&gt;\nhttp://i.imgur.com/Ulxeqm4.jpg&lt;/a&gt;","torrent":{"xt":"urn:btih:9bcb7f7a76ac4f816120496a7e4b10f8d1b4f32f","amp;dn":"Benfica+vs+Chelsea+FC+-+15+May+2013+-+Europa+League+720p","amp;tr":["udp%3A%2F%2Ftracker.openbittorrent.com%3A80","udp%3A%2F%2Fopen.demonii.com%3A1337","udp%3A%2F%2Ftracker.coppersurfer.tk%3A6969","udp%3A%2F%2Fexodus.desync.com%3A6969"],"infoHash":"9bcb7f7a76ac4f816120496a7e4b10f8d1b4f32f","infoHashBuffer":{"type":"Buffer","data":[155,203,127,122,118,172,79,129,97,32,73,106,126,75,16,248,209,180,243,47]},"announce":[],"urlList":[]}}